PathFileType	4	(X/Y/Z)	C:\Users\86182\Documents\cortex\Trimmed_M4_L9.trc
DataRate	CameraRate	NumFrames	NumMarkers	Units	OrigDataRate	OrigDataStartFrame	OrigNumFrames
100.00	100.00	       56	2	mm	100.00	361	       901
Frame#	Time	gripper			box			
		X1	Y1	Z1	X2	Y2	Z2	

361	3.600	276.20639	151.25662	292.51901	277.09387	149.34380	157.21861	
362	3.610	276.21771	151.26057	292.52722	277.11777	149.34442	157.24504	
363	3.620	276.22906	151.26364	292.53418	277.13870	149.34206	157.26527	
364	3.630	276.23898	151.26590	292.53967	277.15659	149.33784	157.27905	
365	3.640	276.24637	151.26732	292.54330	277.17166	149.33295	157.28586	
366	3.650	276.25082	151.26796	292.54498	277.18384	149.32829	157.28606	
367	3.660	276.25275	151.26805	292.54489	277.19302	149.32452	157.28151	
368	3.670	276.25327	151.26799	292.54370	277.19955	149.32222	157.27480	
369	3.680	276.25357	151.26813	292.54224	277.20438	149.32170	157.26805	
370	3.690	276.25433	151.26859	292.54135	277.20828	149.32280	157.26265	
371	3.700	276.25568	151.26930	292.54120	277.21149	149.32468	157.25923	
372	3.710	276.25702	151.27000	292.54132	277.21353	149.32625	157.25737	
373	3.720	276.25720	151.27029	292.54077	277.21350	149.32669	157.25537	
374	3.730	276.25479	151.26965	292.53842	277.21069	149.32549	157.25061	
375	3.740	276.24857	151.26762	292.53339	277.20453	149.32201	157.24014	
376	3.750	276.23810	151.26411	292.52515	277.19452	149.31520	157.22169	
377	3.760	276.22412	151.25940	292.51407	277.18039	149.30400	157.19429	
378	3.770	276.20822	151.25407	292.50134	277.16269	149.28830	157.15872	
379	3.780	276.19226	151.24869	292.48865	277.14310	149.26953	157.11754	
380	3.790	276.17767	151.24368	292.47739	277.12430	149.25029	157.07487	
381	3.800	276.16556	151.23947	292.46841	277.10916	149.23317	157.03572	
382	3.810	276.15714	151.23648	292.46225	277.09952	149.21970	157.00447	
383	3.820	276.15320	151.23512	292.45920	277.09576	149.21013	156.98355	
384	3.830	276.15390	151.23544	292.45905	277.09708	149.20398	156.97334	
385	3.840	276.15833	151.23714	292.46112	277.10190	149.20038	156.97263	
386	3.850	276.16492	151.23959	292.46442	277.10867	149.19836	156.97902	
387	3.860	276.17184	151.24210	292.46796	277.11572	149.19702	156.98923	
388	3.870	276.17758	151.24409	292.47083	277.12152	149.19574	156.99948	
389	3.880	276.18127	151.24525	292.47260	277.12497	149.19427	157.00645	
390	3.890	276.18256	151.24551	292.47314	277.12552	149.19283	157.00822	
391	3.900	276.18140	151.24495	292.47260	277.12335	149.19168	157.00478	
392	3.910	276.17822	151.24371	292.47110	277.11938	149.19101	156.99779	
393	3.920	276.17389	151.24211	292.46906	277.11508	149.19081	156.98981	
394	3.930	276.16949	151.24055	292.46704	277.11169	149.19099	156.98322	
395	3.940	276.16635	151.23949	292.46564	277.11002	149.19138	156.97960	
396	3.950	276.16522	151.23929	292.46530	277.11017	149.19182	156.97966	
397	3.960	276.16635	151.23996	292.46613	277.11176	149.19218	156.98312	
398	3.970	276.16901	151.24126	292.46771	277.11411	149.19246	156.98860	
399	3.980	276.17194	151.24263	292.46942	277.11624	149.19278	156.99376	
400	3.990	276.17392	151.24359	292.47061	277.11722	149.19331	156.99626	
401	4.000	276.17416	151.24380	292.47083	277.11646	149.19406	156.99481	
402	4.010	276.17252	151.24316	292.47003	277.11411	149.19501	156.98973	
403	4.020	276.16949	151.24181	292.46832	277.11090	149.19595	156.98282	
404	4.030	276.16620	151.24011	292.46625	277.10773	149.19653	156.97664	
405	4.040	276.16418	151.23859	292.46442	277.10510	149.19632	156.97351	
406	4.050	276.16467	151.23764	292.46344	277.10339	149.19498	156.97496	
407	4.060	276.16824	151.23746	292.46347	277.10275	149.19244	156.98154	
408	4.070	276.17441	151.23795	292.46445	277.10321	149.18903	156.99257	
409	4.080	276.18188	151.23882	292.46594	277.10471	149.18541	157.00598	
410	4.090	276.18881	151.23965	292.46735	277.10684	149.18248	157.01855	
411	4.100	276.19370	151.24010	292.46817	277.10916	149.18091	157.02684	
412	4.110	276.19592	151.23984	292.46802	277.11133	149.18102	157.02852	
413	4.120	276.19537	151.23883	292.46686	277.11292	149.18271	157.02304	
414	4.130	276.19202	151.23724	292.46490	277.11359	149.18552	157.01186	
415	4.140	276.18619	151.23549	292.46259	277.11307	149.18871	156.99789	
416	4.150	276.17889	151.23402	292.46045	277.11154	149.19141	156.98451	
